<svg width="381" height="44" viewBox="0 0 381 44" fill="none" xmlns="http://www.w3.org/2000/svg">
<path d="M3.25 37.625H0.125V0.125H6.375V34.5H9.5V37.625H22V34.5H25.125V0.125H31.375V37.625H28.25V40.75H25.125V43.875H6.375V40.75H3.25V37.625ZM53.25 37.625H56.375V34.5H59.5V31.375H62.625V22H59.5V18.875H56.375V15.75H53.25V18.875H50.125V22H47V31.375H50.125V34.5H53.25V37.625ZM43.875 37.625V43.875H37.625V0.125H43.875V15.75H47V12.625H50.125V9.5H59.5V12.625H62.625V15.75H65.75V18.875H68.875V34.5H65.75V37.625H62.625V40.75H59.5V43.875H50.125V40.75H47V37.625H43.875ZM81.375 18.875V22H100.125V18.875H97V15.75H84.5V18.875H81.375ZM106.375 34.5V37.625H103.25V40.75H100.125V43.875H81.375V40.75H78.25V37.625H75.125V15.75H78.25V12.625H81.375V9.5H100.125V12.625H103.25V15.75H106.375V25.125H103.25V28.25H81.375V34.5H84.5V37.625H97V34.5H106.375ZM118.875 25.125V43.875H112.625V9.5H118.875V15.75H122V12.625H125.125V9.5H137.625V12.625H140.75V15.75H143.875V22H137.625V18.875H134.5V15.75H128.25V18.875H125.125V22H122V25.125H118.875ZM159.5 37.6562H172V34.5312H175.125V31.4375H181.375V37.6875H178.25V40.7812H175.125V43.9062H156.375V40.75H153.25V37.625H150.125V6.375H153.25V3.25H156.375V0.125H175.125V3.25H178.25V6.375H181.375V12.625H175.125V9.5H172V6.375H159.5V9.5H156.375V34.5H159.5V37.6562ZM193.575 0.125V43.875H187.325V0.125H193.575ZM205.775 18.875V22H224.525V18.875H221.4V15.75H208.9V18.875H205.775ZM230.775 34.5V37.625H227.65V40.75H224.525V43.875H205.775V40.75H202.65V37.625H199.525V15.75H202.65V12.625H205.775V9.5H224.525V12.625H227.65V15.75H230.775V25.125H227.65V28.25H205.775V34.5H208.9V37.625H221.4V34.5H230.775ZM246.4 37.625H258.9V34.5H262.025V28.25H258.9V25.125H246.4V28.25H243.275V34.5H246.4V37.625ZM243.275 43.875V40.75H240.15V37.625H237.025V25.125H240.15V22H243.275V18.875H258.9V22H262.025V15.75H258.9V12.625H243.275V6.375H262.025V9.5H265.15V12.625H268.275V43.875H262.025V40.75H258.9V43.875H243.275ZM280.775 18.875V43.875H274.525V9.5H280.775V12.625H283.9V9.5H299.525V12.625H302.65V15.75H305.775V43.875H299.525V18.875H296.4V15.75H283.9V18.875H280.775ZM318.275 18.875V22H337.025V18.875H333.9V15.75H321.4V18.875H318.275ZM343.275 34.5V37.625H340.15V40.75H337.025V43.875H318.275V40.75H315.15V37.625H312.025V15.75H315.15V12.625H318.275V9.5H337.025V12.625H340.15V15.75H343.275V25.125H340.15V28.25H318.275V34.5H321.4V37.625H333.9V34.5H343.275ZM355.775 25.125V43.875H349.525V9.5H355.775V15.75H358.9V12.625H362.025V9.5H374.525V12.625H377.65V15.75H380.775V22H374.525V18.875H371.4V15.75H365.15V18.875H362.025V22H358.9V25.125H355.775Z" fill="white"/>
</svg>
