<svg width="620" height="500" viewBox="0 0 620 500" fill="none" xmlns="http://www.w3.org/2000/svg">
<rect width="620" height="500" rx="16" fill="#1C2128"/>
<path d="M39.375 141.938H34.6875V85.6875H44.0625V137.25H48.75V141.938H67.5V137.25H72.1875V85.6875H81.5625V141.938H76.875V146.625H72.1875V151.312H44.0625V146.625H39.375V141.938ZM100.312 113.812V151.312H90.9375V99.75H100.312V104.438H105V99.75H128.438V104.438H133.125V109.125H137.812V151.312H128.438V113.812H123.75V109.125H105V113.812H100.312ZM175.312 90.375V99.75H165.938V90.375H175.312ZM180 141.938H184.688V151.312H175.312V146.625H170.625V141.938H165.938V118.5H156.562V109.125H175.312V137.25H180V141.938ZM203.438 99.75H212.812V127.875H217.5V132.562H222.188V137.25H231.562V132.562H236.25V127.875H240.938V99.75H250.312V132.562H245.625V137.25H240.938V141.938H236.25V146.625H231.562V151.312H222.188V146.625H217.5V141.938H212.812V137.25H208.125V132.562H203.438V99.75ZM269.062 113.812V118.5H297.188V113.812H292.5V109.125H273.75V113.812H269.062ZM306.562 137.25V141.938H301.875V146.625H297.188V151.312H269.062V146.625H264.375V141.938H259.688V109.125H264.375V104.438H269.062V99.75H297.188V104.438H301.875V109.125H306.562V123.188H301.875V127.875H269.062V137.25H273.75V141.938H292.5V137.25H306.562ZM325.312 123.188V151.312H315.938V99.75H325.312V109.125H330V104.438H334.688V99.75H353.438V104.438H358.125V109.125H362.812V118.5H353.438V113.812H348.75V109.125H339.375V113.812H334.688V118.5H330V123.188H325.312ZM376.875 141.938H372.188V132.562H381.562V137.25H386.25V141.938H405V132.562H395.625V127.875H386.25V123.188H376.875V118.5H372.188V109.125H376.875V104.438H381.562V99.75H409.688V104.438H414.375V109.125H419.062V118.5H409.688V113.812H405V109.125H386.25V118.5H400.312V123.188H409.688V127.875H414.375V132.562H419.062V141.938H414.375V146.625H409.688V151.312H381.562V146.625H376.875V141.938ZM442.5 141.938H461.25V137.25H465.938V127.875H461.25V123.188H442.5V127.875H437.812V137.25H442.5V141.938ZM437.812 151.312V146.625H433.125V141.938H428.438V123.188H433.125V118.5H437.812V113.812H461.25V118.5H465.938V109.125H461.25V104.438H437.812V95.0625H465.938V99.75H470.625V104.438H475.312V151.312H465.938V146.625H461.25V151.312H437.812ZM512.812 85.6875V151.312H503.438V85.6875H512.812ZM34.6875 179.688H44.0625V231.25H53.4375V207.812H62.8125V231.25H72.1875V179.688H81.5625V235.938H76.875V240.625H72.1875V245.312H62.8125V240.625H53.4375V245.312H44.0625V240.625H39.375V235.938H34.6875V179.688ZM119.062 184.375V193.75H109.688V184.375H119.062ZM123.75 235.938H128.438V245.312H119.062V240.625H114.375V235.938H109.688V212.5H100.312V203.125H119.062V231.25H123.75V235.938ZM156.562 207.812V245.312H147.188V193.75H156.562V198.438H161.25V193.75H184.688V198.438H189.375V203.125H194.062V245.312H184.688V207.812H180V203.125H161.25V207.812H156.562ZM240.938 203.125V179.688H250.312V245.312H240.938V235.938H236.25V240.625H231.562V245.312H217.5V240.625H212.812V235.938H208.125V231.25H203.438V207.812H208.125V203.125H212.812V198.438H217.5V193.75H231.562V198.438H236.25V203.125H240.938ZM217.5 231.25H222.188V235.938H226.875V231.25H231.562V226.562H236.25V212.5H231.562V207.812H226.875V203.125H222.188V207.812H217.5V212.5H212.812V226.562H217.5V231.25ZM273.75 235.938H292.5V231.25H297.188V207.812H292.5V203.125H273.75V207.812H269.062V231.25H273.75V235.938ZM269.062 245.312V240.625H264.375V235.938H259.688V203.125H264.375V198.438H269.062V193.75H297.188V198.438H301.875V203.125H306.562V235.938H301.875V240.625H297.188V245.312H269.062ZM315.938 193.75H325.312V231.25H330V235.938H334.688V212.5H344.062V235.938H348.75V231.25H353.438V193.75H362.812V235.938H358.125V240.625H353.438V245.312H344.062V240.625H334.688V245.312H325.312V240.625H320.625V235.938H315.938V193.75ZM376.875 235.938H372.188V226.562H381.562V231.25H386.25V235.938H405V226.562H395.625V221.875H386.25V217.188H376.875V212.5H372.188V203.125H376.875V198.438H381.562V193.75H409.688V198.438H414.375V203.125H419.062V212.5H409.688V207.812H405V203.125H386.25V212.5H400.312V217.188H409.688V221.875H414.375V226.562H419.062V235.938H414.375V240.625H409.688V245.312H381.562V240.625H376.875V235.938ZM39.375 329.938H34.6875V273.688H44.0625V325.25H48.75V329.938H67.5V325.25H72.1875V273.688H81.5625V329.938H76.875V334.625H72.1875V339.312H44.0625V334.625H39.375V329.938ZM123.75 329.938H128.438V339.312H119.062V334.625H114.375V329.938H109.688V297.125H100.312V287.75H109.688V273.688H119.062V287.75H128.438V297.125H119.062V325.25H123.75V329.938ZM175.312 278.375V287.75H165.938V278.375H175.312ZM180 329.938H184.688V339.312H175.312V334.625H170.625V329.938H165.938V306.5H156.562V297.125H175.312V325.25H180V329.938ZM231.562 273.688V339.312H222.188V273.688H231.562ZM287.812 278.375V287.75H278.438V278.375H287.812ZM292.5 329.938H297.188V339.312H287.812V334.625H283.125V329.938H278.438V306.5H269.062V297.125H287.812V325.25H292.5V329.938ZM348.75 329.938H353.438V339.312H344.062V334.625H339.375V329.938H334.688V297.125H325.312V287.75H334.688V273.688H344.062V287.75H353.438V297.125H344.062V325.25H348.75V329.938ZM381.562 339.312V329.938H405V325.25H409.688V311.188H405V315.875H400.312V320.562H381.562V315.875H376.875V311.188H372.188V283.062H381.562V306.5H386.25V311.188H395.625V306.5H400.312V301.812H405V292.438H409.688V283.062H419.062V329.938H414.375V334.625H409.688V339.312H381.562ZM48.75 428.625V433.312H39.375V423.938H44.0625V419.25H48.75V414.562H53.4375V409.875H58.125V405.188H62.8125V400.5H67.5V395.812H62.8125V391.125H58.125V386.438H53.4375V381.75H48.75V377.062H44.0625V372.375H39.375V363H48.75V367.688H53.4375V372.375H58.125V377.062H62.8125V381.75H67.5V386.438H72.1875V391.125H76.875V405.188H72.1875V409.875H67.5V414.562H62.8125V419.25H58.125V423.938H53.4375V428.625H48.75ZM86.25 438V428.625H142.5V438H86.25Z" fill="#C6D7E8"/>
<path d="M587.688 33.875V35.4375H584.562V32.3125H586.125V30.75H587.688V29.1875H589.25V27.625H590.812V26.0625H589.25V24.5H587.688V22.9375H586.125V21.375H584.562V18.25H587.688V19.8125H589.25V21.375H590.812V22.9375H593.938V21.375H595.5V19.8125H597.062V18.25H600.188V21.375H598.625V22.9375H597.062V24.5H595.5V26.0625H593.938V27.625H595.5V29.1875H597.062V30.75H598.625V32.3125H600.188V35.4375H597.062V33.875H595.5V32.3125H593.938V30.75H590.812V32.3125H589.25V33.875H587.688Z" fill="#C6D7E8"/>
<rect x="556.5" y="19.5" width="15" height="16" stroke="#C6D7E8" stroke-width="3"/>
<path d="M526 37V33.875H544.75V37H526Z" fill="#C6D7E8"/>
<path d="M31.5625 23.25H34.6875V35.75H36.25V37.3125H42.5V35.75H44.0625V23.25H47.1875V37.3125H45.625V38.875H44.0625V40.4375H34.6875V38.875H33.125V37.3125H31.5625V23.25ZM50.3125 23.25H53.4375V35.75H55V37.3125H56.5625V29.5H59.6875V37.3125H61.25V35.75H62.8125V23.25H65.9375V37.3125H64.375V38.875H62.8125V40.4375H59.6875V38.875H56.5625V40.4375H53.4375V38.875H51.875V37.3125H50.3125V23.25ZM69.0625 23.25H72.1875V35.75H73.75V37.3125H80V35.75H81.5625V23.25H84.6875V37.3125H83.125V38.875H81.5625V40.4375H72.1875V38.875H70.625V37.3125H69.0625V23.25Z" fill="#C6D7E8"/>
</svg>
