<svg width="513" height="213" viewBox="0 0 513 213" fill="none" xmlns="http://www.w3.org/2000/svg">
<path d="M6.5 75.25H0.25V0.25H12.75V69H19V75.25H44V69H50.25V0.25H62.75V75.25H56.5V81.5H50.25V87.75H12.75V81.5H6.5V75.25ZM87.75 37.75V87.75H75.25V19H87.75V25.25H94V19H125.25V25.25H131.5V31.5H137.75V87.75H125.25V37.75H119V31.5H94V37.75H87.75ZM187.75 6.5V19H175.25V6.5H187.75ZM194 75.25H200.25V87.75H187.75V81.5H181.5V75.25H175.25V44H162.75V31.5H187.75V69H194V75.25ZM300.25 0.25H312.75V69H325.25V37.75H337.75V69H350.25V0.25H362.75V75.25H356.5V81.5H350.25V87.75H337.75V81.5H325.25V87.75H312.75V81.5H306.5V75.25H300.25V0.25ZM412.75 6.5V19H400.25V6.5H412.75ZM419 75.25H425.25V87.75H412.75V81.5H406.5V75.25H400.25V44H387.75V31.5H412.75V69H419V75.25ZM462.75 37.75V87.75H450.25V19H462.75V25.25H469V19H500.25V25.25H506.5V31.5H512.75V87.75H500.25V37.75H494V31.5H469V37.75H462.75ZM119 200.25H112.75V125.25H125.25V194H131.5V200.25H156.5V194H162.75V125.25H175.25V200.25H169V206.5H162.75V212.75H125.25V206.5H119V200.25ZM231.5 200.25H237.75V212.75H225.25V206.5H219V200.25H212.75V156.5H200.25V144H212.75V125.25H225.25V144H237.75V156.5H225.25V194H231.5V200.25ZM300.25 131.5V144H287.75V131.5H300.25ZM306.5 200.25H312.75V212.75H300.25V206.5H294V200.25H287.75V169H275.25V156.5H300.25V194H306.5V200.25ZM375.25 125.25V212.75H362.75V125.25H375.25Z" fill="black"/>
</svg>
